

-: Cover :-
 
http://desibbrg.org/images/83477015906656641802.jpg



-: Screens :-





    	http://desibbrg.org/images/35594496276033839667.png
    	http://desibbrg.org/images/54458388063531963753.png
    	http://desibbrg.org/images/38988775207632235846.png
    	http://desibbrg.org/images/07680618522331821245.png
    	http://desibbrg.org/images/84619816078770604199.png
    	http://desibbrg.org/images/71570023425537947962.png
    	http://desibbrg.org/images/22833564000111621326.png
    	http://desibbrg.org/images/14555644390558832984.png
    	http://desibbrg.org/images/19966892037243103218.png
    	http://desibbrg.org/images/01990769885990532738.png
    	http://desibbrg.org/images/18461051476785437576.png
    	http://desibbrg.org/images/79101258782013474624.png


-: INFo :-



General

Format                           : AVI
Format/Info                      : Audio Video Interleave
File size                        : 698 MiB
Duration                         : 2h 22mn
Overall bit rate                 : 685 Kbps
Writing application              : VirtualDubMod 1.5.10.2 (build 2540/release)
Writing library                  : VirtualDubMod build 2540/release

Video
ID                               : 0
Format                           : MPEG-4 Visual
Format profile                   : Advanced Simple@L5
Format settings, BVOP            : Yes
Format settings, QPel            : No
Format settings, GMC             : No warppoints
Format settings, Matrix          : Custom
Codec ID                         : XVID
Codec ID/Hint                    : XviD
Duration                         : 2h 22mn
Bit rate                         : 589 Kbps
Width                            : 640 pixels
Height                           : 272 pixels
Display aspect ratio             : 2.35:1
Frame rate                       : 23.976 fps
Color space                      : YUV
Chroma subsampling               : 4:2:0
Bit depth                        : 8 bits
Scan type                        : Progressive
Bits/(Pixel*Frame)               : 0.141
Stream size                      : 600 MiB (86%)

Audio
ID                               : 1
Format                           : MPEG Audio
Format version                   : Version 1
Format profile                   : Layer 3
Mode                             : Joint stereo
Mode extension                   : MS Stereo
Codec ID                         : 55
Codec ID/Hint                    : MP3
Duration                         : 2h 22mn
Bit rate mode                    : Variable
Bit rate                         : 88.0 Kbps
Channel(s)                       : 2 channels
Sampling rate                    : 32.0 KHz
Stream size                      : 87.6 MiB (13%)
Alignment                        : Aligned on interleaves
Interleave, duration             : 36 ms (0.86 video frame)
Interleave, preload duration     : 227 ms
Writing library                  : LAME3.99r




Banner
Brandsmith Motion Pictures
Viacom 18 Motion Pictures

Status
Released

Release Date
8 Mar 2013

Genre
Action,Social,Thriller

Producer
Rahul Mittra
Tigmanshu Dhulia

Star Cast
Jimmy Sheirgill
Mahie Gill
Randeep Hooda
Soha Ali Khan
Irrfan Khan
Pravesh Rana
Deepraj Rana
Raj Babbar
Neha Dhupia.... Item Song
Mugdha Godse.... Item Song

Story / Writers
Tigmanshu Dhulia
Kamlesh Pandey

Costume Designers
Tulika Dhulia

Publicity Pro
Culture Creations
Vijay Grover

Censor Details:

Censor Dates
Not Available.

Reels
Not Available.

Length in metres
0.0

Music Director

Sandeep Chowta

Color
C
Language
Hindi
Director

Tigmanshu Dhulia

Singers

Paroma P.Dasgupta

Lyricist

Sandeep Nath

Editor

Rahul Shrivastav

Cinematography

Yogesh Jani

Action

Kaushal
Moses

Screenplay

Tigmanshu Dhulia

Dialogue

Tigmanshu Dhulia

Shooting Location(City & Country)
India

Sound
Rakesh Ranjan

Music Company
T-Series
